<?xml version="1.0"?>
<svg version="1.1" xmlns="http://www.w3.org/2000/svg" width="51" height="39" style="border: dashed 2px #aaa"><path fill="#" d="M29.314453125,30.73828125q0,2.70703125-1.9482421875,4.265625t-5.4208984375,1.55859375q-3.19921875,0-5.66015625-1.203125l0-3.9375q2.0234375,0.90234375,3.4248046875,1.271484375t2.5634765625,0.369140625q1.39453125,0,2.1396484375-0.533203125t0.7451171875-1.5859375q0-0.587890625-0.328125-1.0458984375t-0.9638671875-0.8818359375t-2.5908203125-1.353515625q-1.83203125-0.861328125-2.748046875-1.654296875t-1.462890625-1.845703125t-0.546875-2.4609375q0-2.65234375,1.7978515625-4.169921875t4.9697265625-1.517578125q1.55859375,0,2.9736328125,0.369140625t2.9599609375,1.0390625l-1.3671875,3.294921875q-1.599609375-0.65625-2.6455078125-0.916015625t-2.0576171875-0.259765625q-1.203125,0-1.845703125,0.560546875t-0.642578125,1.462890625q0,0.560546875,0.259765625,0.9775390625t0.8271484375,0.806640625t2.6865234375,1.4013671875q2.802734375,1.33984375,3.841796875,2.6865234375t1.0390625,3.3017578125z M48.64333984375,36.2890625l-4.169921875,0l0-8.927734375q0-3.30859375-2.4609375-3.30859375q-1.75,0-2.529296875,1.189453125t-0.779296875,3.85546875l0,7.19140625l-4.169921875,0l0-21.2734375l4.169921875,0l0,4.333984375q0,0.505859375-0.095703125,2.37890625l-0.095703125,1.23046875l0.21875,0q1.39453125-2.2421875,4.4296875-2.2421875q2.693359375,0,4.087890625,1.44921875t1.39453125,4.15625l0,9.966796875z M58.1831640625,28.619140625q0,2.26953125,0.7451171875,3.431640625t2.4267578125,1.162109375q1.66796875,0,2.3994140625-1.1552734375t0.7314453125-3.4384765625q0-2.26953125-0.73828125-3.404296875t-2.419921875-1.134765625q-1.66796875,0-2.40625,1.1279296875t-0.73828125,3.4111328125z M68.7515234375,28.619140625q0,3.732421875-1.96875,5.837890625t-5.482421875,2.10546875q-2.201171875,0-3.8828125-0.9638671875t-2.583984375-2.7685546875t-0.90234375-4.2109375q0-3.74609375,1.955078125-5.82421875t5.49609375-2.078125q2.201171875,0,3.8828125,0.95703125t2.583984375,2.748046875t0.90234375,4.197265625z M82.51595703125,36.5625q-2.693359375,0-4.224609375-1.955078125l-0.21875,0q0.21875,1.9140625,0.21875,2.21484375l0,6.193359375l-4.169921875,0l0-22.01171875l3.390625,0l0.587890625,1.982421875l0.19140625,0q1.462890625-2.26953125,4.333984375-2.26953125q2.70703125,0,4.23828125,2.091796875t1.53125,5.810546875q0,2.447265625-0.7177734375,4.251953125t-2.0439453125,2.748046875t-3.1171875,0.943359375z M81.28548828125,24.052734375q-1.544921875,0-2.255859375,0.9501953125t-0.73828125,3.1376953125l0,0.451171875q0,2.4609375,0.7314453125,3.52734375t2.3173828125,1.06640625q2.802734375,0,2.802734375-4.62109375q0-2.255859375-0.6904296875-3.3837890625t-2.1669921875-1.1279296875z"/><path fill="#" d="M97.41125,23.833984375q0-0.806640625,0.0888671875-1.955078125t0.328125-2.392578125t0.642578125-2.474609375t1.0322265625-2.173828125t1.50390625-1.490234375q0.724609375-0.451171875,1.66796875-0.451171875q0.19140625,0,0.396484375,0.02734375q2.37890625,0.21875,3.6572265625,1.0869140625t1.8662109375,2.201171875t0.68359375,3.03515625t0.095703125,3.5888671875q0,1.517578125-0.2802734375,3.3017578125t-0.9912109375,3.3291015625t-1.9619140625,2.5771484375t-3.1787109375,1.0322265625q-1.17578125,0-2.0576171875-0.4306640625t-1.4970703125-1.1484375t-1.01171875-1.66796875t-0.6015625-1.96875t-0.2939453125-2.0576171875t-0.0888671875-1.96875z M100.186640625,23.21875q0,0.587890625,0.013671875,1.4423828125t0.1162109375,1.7978515625t0.2666015625,1.8798828125t0.4853515625,1.7021484375t0.8134765625,1.2578125t1.189453125,0.51953125l0.068359375,0q0.62890625,0,1.12109375-0.478515625q0.51953125-0.505859375,0.9228515625-1.216796875t0.697265625-1.4970703125t0.5263671875-1.3466796875l-0.0546875,0.123046875q0.396484375-1.2578125,0.533203125-2.5771484375t0.13671875-2.6044921875q0-0.615234375-0.08203125-1.4833984375t-0.2666015625-1.8115234375t-0.478515625-1.8662109375t-0.7451171875-1.6064453125t-1.052734375-1.0390625q-0.4375-0.259765625-0.970703125-0.2734375q-0.205078125,0-0.41015625,0.041015625q-0.697265625,0.13671875-1.189453125,0.68359375t-0.7998046875,1.3466796875t-0.4716796875,1.75t-0.2529296875,1.9140625t-0.1025390625,1.845703125t-0.013671875,1.4970703125z M106.35265625,27.4296875l0-0.02734375l0,0.02734375z M112.21337890625,28.46875l0-0.396484375q0-0.4921875,0.02734375-0.9296875q0.02734375-0.615234375,0.02734375-1.01171875q0-0.21875,0.02734375-0.4990234375t0.13671875-0.4443359375q0.13671875-0.13671875,0.3212890625-0.2802734375t0.4033203125-0.1435546875q0.697265625,0,1.09375,0.1572265625t0.423828125,0.6494140625l0.0546875,0.423828125q0.24609375-0.587890625,0.65625-1.4560546875t0.9501953125-1.654296875t1.216796875-1.33984375t1.4287109375-0.5537109375q0.697265625,0,1.1484375,0.65625t0.7177734375,1.6748046875t0.3759765625,2.26953125t0.150390625,2.4541015625t0.0546875,2.1943359375t0.095703125,1.4970703125q0.0546875,0.423828125,0.1845703125,0.8955078125t0.1298828125,0.8681640625q0,0.109375-0.1572265625,0.2119140625t-0.3349609375,0.1708984375t-0.3623046875,0.109375t-0.2666015625,0.041015625q-0.533203125,0-0.7587890625-0.7998046875t-0.2802734375-2.0029296875t-0.0546875-2.6044921875t-0.095703125-2.6044921875t-0.3896484375-2.0029296875t-0.9365234375-0.8271484375q-0.587890625,0-1.216796875,0.7587890625t-1.080078125,2.0166015625q-0.4375,1.2578125-0.6015625,2.857421875q-0.0546875,0.505859375-0.0546875,1.01171875q0,1.107421875,0.232421875,2.21484375q0.02734375,0.19140625-0.1572265625,0.287109375t-0.4580078125,0.150390625t-0.5537109375,0.068359375t-0.4306640625,0.013671875q-0.533203125,0-0.8544921875-0.3759765625t-0.4990234375-0.9638671875t-0.2392578125-1.3193359375t-0.0751953125-1.4423828125z M124.6366015625,33.25390625q0-0.396484375,0.0341796875-0.833984375t0.0615234375-0.8203125l0.08203125-2.05078125q0.13671875-2.4609375,0.3349609375-4.83984375t0.3349609375-4.8125q0.08203125-1.33984375,0.123046875-2.6318359375t0.123046875-2.6318359375q-0.0546875-0.109375-0.0546875-0.150390625q0-0.19140625,0.1435546875-0.30078125t0.3349609375-0.1845703125t0.4033203125-0.1025390625t0.3212890625-0.02734375l0.314453125,0q0.423828125,0.0546875,0.615234375,0.2666015625t0.24609375,0.505859375t0.02734375,0.62890625t-0.02734375,0.6220703125q0,1.982421875-0.095703125,4.0400390625t-0.21875,4.12890625t-0.2255859375,4.142578125t-0.1025390625,4.0947265625l0,0.95703125q0,0.642578125-0.3623046875,0.84765625t-1.0048828125,0.205078125q-0.560546875,0-0.984375-0.24609375t-0.423828125-0.806640625z M130.90748046875,28.072265625q0-1.2578125,0.2939453125-2.4677734375t0.4990234375-2.4130859375q0.0546875-0.314453125,0.4306640625-0.3896484375t0.6357421875-0.0751953125q0.451171875,0,0.724609375,0.13671875q0.109375,0.0546875,0.205078125,0.123046875t0.095703125,0.177734375q0,1.17578125-0.2802734375,2.296875t-0.2802734375,2.37890625q0,0.423828125,0.0615234375,0.7998046875t0.1162109375,0.7451171875l0.08203125,0.396484375q0,0.109375,0.013671875,0.19140625t0.041015625,0.19140625q0,0.24609375-0.3486328125,0.3349609375t-0.6083984375,0.0888671875q-0.396484375,0-0.7314453125-0.1572265625t-0.5263671875-0.5400390625l-0.19140625-0.396484375q-0.1640625-0.314453125-0.1640625-0.7041015625t-0.068359375-0.7177734375z M131.78248046875,19.841796875l0-0.259765625q0-0.642578125,0.3212890625-1.1484375t0.9638671875-0.505859375q0.08203125,0,0.1572265625,0.013671875t0.1572265625,0.013671875q0.1640625,0.02734375,0.4306640625,0.1298828125t0.2666015625,0.3212890625l0,0.02734375q-0.0546875,0.109375-0.068359375,0.2255859375t-0.068359375,0.1982421875l0.02734375-0.02734375q-0.1640625,0.423828125-0.2666015625,0.68359375t-0.2255859375,0.4169921875t-0.3076171875,0.2255859375t-0.5263671875,0.068359375q-0.0546875,0-0.19140625-0.013671875t-0.2939453125-0.0546875t-0.2666015625-0.109375t-0.109375-0.205078125z M136.89125,28.46875l0-0.396484375q0-0.4921875,0.02734375-0.9296875q0.02734375-0.615234375,0.02734375-1.01171875q0-0.21875,0.02734375-0.4990234375t0.13671875-0.4443359375q0.13671875-0.13671875,0.3212890625-0.2802734375t0.4033203125-0.1435546875q0.697265625,0,1.09375,0.1572265625t0.423828125,0.6494140625l0.0546875,0.423828125q0.24609375-0.587890625,0.65625-1.4560546875t0.9501953125-1.654296875t1.216796875-1.33984375t1.4287109375-0.5537109375q0.697265625,0,1.1484375,0.65625t0.7177734375,1.6748046875t0.3759765625,2.26953125t0.150390625,2.4541015625t0.0546875,2.1943359375t0.095703125,1.4970703125q0.0546875,0.423828125,0.1845703125,0.8955078125t0.1298828125,0.8681640625q0,0.109375-0.1572265625,0.2119140625t-0.3349609375,0.1708984375t-0.3623046875,0.109375t-0.2666015625,0.041015625q-0.533203125,0-0.7587890625-0.7998046875t-0.2802734375-2.0029296875t-0.0546875-2.6044921875t-0.095703125-2.6044921875t-0.3896484375-2.0029296875t-0.9365234375-0.8271484375q-0.587890625,0-1.216796875,0.7587890625t-1.080078125,2.0166015625q-0.4375,1.2578125-0.6015625,2.857421875q-0.0546875,0.505859375-0.0546875,1.01171875q0,1.107421875,0.232421875,2.21484375q0.02734375,0.19140625-0.1572265625,0.287109375t-0.4580078125,0.150390625t-0.5537109375,0.068359375t-0.4306640625,0.013671875q-0.533203125,0-0.8544921875-0.3759765625t-0.4990234375-0.9638671875t-0.2392578125-1.3193359375t-0.0751953125-1.4423828125z M149.31447265625,28.9609375q0-0.95703125,0.2119140625-2.255859375t0.7177734375-2.4609375t1.3330078125-1.9755859375t2.0849609375-0.8134765625q1.17578125,0,1.763671875,0.6767578125t0.587890625,1.8251953125q0,0.751953125-0.2802734375,1.6474609375t-0.7998046875,1.6953125t-1.23046875,1.3330078125t-1.5859375,0.533203125l-0.35546875-0.02734375q0,0.369140625,0.109375,0.9912109375t0.3212890625,1.2373046875t0.546875,1.080078125t0.8134765625,0.46484375q0.697265625,0,1.33984375-0.560546875t1.216796875-1.244140625t1.06640625-1.244140625t0.90234375-0.560546875q0.21875,0,0.451171875,0.068359375t0.259765625,0.3828125q0,0.19140625-0.1025390625,0.314453125t-0.1845703125,0.2734375q-0.423828125,0.724609375-0.9228515625,1.380859375t-1.1279296875,1.189453125t-1.3740234375,0.8408203125t-1.6474609375,0.3076171875q-1.17578125,0-1.955078125-0.4169921875t-1.2578125-1.12109375t-0.6904296875-1.626953125t-0.2119140625-1.9345703125z M151.76173828125,27.921875l0.3828125,0.341796875q0.2734375,0.24609375,0.546875,0.109375t0.4921875-0.4990234375t0.4033203125-0.8955078125t0.328125-1.09375t0.2119140625-1.09375t0.068359375-0.888671875l0-0.46484375t-0.041015625-0.4921875t-0.1435546875-0.3896484375t-0.3212890625-0.1982421875q-0.068359375-0.013671875-0.123046875-0.013671875q-0.46484375,0-0.79296875,0.587890625q-0.35546875,0.65625-0.57421875,1.5927734375t-0.314453125,1.9208984375t-0.123046875,1.4765625z"/></svg>
